<svg width="143" height="56" viewBox="0 0 143 56" fill="none" xmlns="http://www.w3.org/2000/svg">
<path d="M6.26619 0.00451371C17.3361 -0.00564214 28.4161 0.00451371 39.486 0.00451371C39.486 0.349813 39.486 0.695112 39.486 1.04041C28.4161 1.06072 17.3462 1.04041 6.27635 1.06072C6.25604 0.715423 6.25604 0.359969 6.26619 0.0146696" fill="#00539F"/>
<path d="M6.26619 4.11792C17.3361 4.12808 28.406 4.11792 39.486 4.11792C39.486 4.58509 39.486 5.05226 39.486 5.51943C28.4161 5.53974 17.3462 5.51943 6.27635 5.52958C6.25604 5.06241 6.25604 4.58509 6.26619 4.11792Z" fill="#00539F"/>
<path d="M51.4292 7.17407C51.5917 7.0522 51.7948 7.04204 51.9878 7.02173C52.0284 7.22485 51.9675 7.42796 51.805 7.54983C48.8497 10.363 45.8537 13.1152 42.9897 16.03C39.3742 19.6556 35.8908 23.4234 32.58 27.3334C26.3951 34.5542 21.1039 42.5266 16.747 50.9763C16.0056 52.3981 15.3049 53.8402 14.5533 55.2519C14.4822 55.2823 14.3401 55.3534 14.2588 55.3941C14.0862 55.13 13.9541 54.8355 13.8323 54.541C12.8167 52.0528 11.7097 49.5849 10.4097 47.2288C9.15042 44.8421 7.69814 42.5774 6.23569 40.3228C4.49904 37.7026 2.73192 35.0824 0.812468 32.5942C0.548416 32.2184 0.192961 31.9036 0 31.4872C1.35073 31.9543 2.61005 32.6449 3.87954 33.2949C6.19507 34.5542 8.44967 35.9659 10.4402 37.7026C11.862 38.9822 13.2331 40.3329 14.3198 41.9071C15.4369 39.6931 16.8892 37.6619 18.3821 35.6917C23.9475 28.4709 30.8535 22.4282 38.0032 16.8221C42.3397 13.4301 46.8489 10.2614 51.4089 7.17407" fill="#EF4135"/>
<path d="M6.26614 8.20034C17.336 8.2105 28.4059 8.20034 39.4758 8.20034C39.4758 8.74876 39.4758 9.29717 39.4758 9.84559C28.4059 9.84559 17.3259 9.84559 6.25598 9.84559C6.25598 9.29717 6.25598 8.7386 6.25598 8.19019" fill="#00539F"/>
<path d="M6.26624 12.0185C17.3463 11.9982 28.4162 12.0185 39.4962 12.0185C39.4962 12.5974 39.4962 13.1763 39.4962 13.7654C28.4263 13.7654 17.3463 13.7654 6.27639 13.7654C6.27639 13.1865 6.27639 12.6076 6.27639 12.0287" fill="#00539F"/>
<path d="M6.26624 15.7461C17.0619 15.7157 27.8474 15.7461 38.6431 15.736C37.9119 16.3047 37.1908 16.8633 36.4697 17.4422C36.3073 17.6047 36.0635 17.5539 35.8502 17.5742C25.9889 17.564 16.1276 17.5843 6.26624 17.5539C6.26624 16.9547 6.26624 16.3555 6.26624 15.7461Z" fill="#00539F"/>
<path d="M6.2864 21.5045C6.25593 20.7834 6.25593 20.0624 6.2864 19.3413C15.5485 19.3616 24.8005 19.3413 34.0627 19.3616C33.2197 20.0827 32.3666 20.7936 31.5135 21.5045C24.313 21.474 17.1024 21.5045 9.90188 21.4842C8.69334 21.4943 7.49495 21.4639 6.2864 21.5045Z" fill="#00539F"/>
<path d="M38.4399 21.4943C38.7751 21.1084 39.1305 20.7428 39.486 20.3772C39.486 20.753 39.486 21.1186 39.486 21.4943C39.1305 21.4943 38.7852 21.4943 38.4399 21.4943Z" fill="#00539F"/>
<path d="M6.26613 22.9263C14.1369 22.906 22.0077 22.9263 29.8785 22.9263C29.0863 23.6372 28.3043 24.3481 27.5223 25.0691C27.3598 25.2012 27.2176 25.4348 26.9739 25.3941C20.0781 25.3941 13.1823 25.384 6.27628 25.3941C6.24582 24.5715 6.27628 23.7489 6.26613 22.9263Z" fill="#00539F"/>
<path d="M37.0993 22.916C37.8915 22.916 38.6938 22.916 39.4859 22.916C39.4859 23.7386 39.4859 24.5613 39.4859 25.3839C37.9625 25.3839 36.4392 25.3839 34.9056 25.3839C35.6267 24.5511 36.3782 23.7488 37.0891 22.916" fill="#00539F"/>
<path d="M33.8393 26.633C35.7181 26.633 37.6071 26.633 39.4859 26.633C39.4859 27.5165 39.4859 28.4001 39.4859 29.2836C36.8556 29.2938 34.2252 29.2836 31.5948 29.2836C32.3261 28.3798 33.0878 27.5064 33.8393 26.6228" fill="#00539F"/>
<path d="M6.26624 26.6432C12.8066 26.633 19.347 26.6432 25.8975 26.6432C25.0139 27.4557 24.2015 28.3392 23.3687 29.2025C23.2367 29.365 23.0031 29.2837 22.8203 29.304C17.3158 29.304 11.8012 29.2837 6.28655 29.304C6.25608 28.4205 6.28655 27.5267 6.27639 26.6432" fill="#00539F"/>
<path d="M6.26624 30.3804C11.5676 30.3804 16.8791 30.3499 22.1805 30.3905C22.1703 30.421 22.15 30.4718 22.1398 30.5022C21.3375 31.335 20.6266 32.2287 19.8446 33.0818C15.3151 33.1224 10.7957 33.0818 6.26624 33.1021C6.26624 32.1983 6.26624 31.2944 6.26624 30.3804Z" fill="#00539F"/>
<path d="M30.3966 30.7564C30.5286 30.6244 30.62 30.3705 30.8434 30.3807C33.7277 30.3807 36.6018 30.3807 39.486 30.3807C39.486 31.2845 39.486 32.1884 39.486 33.1024C35.8604 33.1024 32.2348 33.1024 28.6091 33.1024C29.1474 32.2798 29.8075 31.5486 30.3966 30.7564Z" fill="#00539F"/>
<path d="M6.17468 34.0167C10.4808 33.976 14.7868 34.0166 19.0929 33.9963C18.3312 35.0018 17.5188 35.9666 16.818 37.0126C14.8782 37.0329 12.9385 37.0126 10.9987 37.0228C10.7347 37.0126 10.4198 37.0736 10.2167 36.8501C8.95739 35.7838 7.57619 34.8901 6.18484 34.0065" fill="#00539F"/>
<path d="M25.7247 37.0329C26.4255 36.0072 27.1567 35.0018 27.8981 33.9963C31.7573 34.0166 35.6267 33.9963 39.4859 33.9963C39.4758 35.0018 39.4859 36.0072 39.4859 37.0228C34.8955 37.0228 30.3152 37.0228 25.7247 37.0228" fill="#00539F"/>
<path d="M11.2527 37.7642C12.9284 37.7642 14.6143 37.7642 16.29 37.7642C15.5486 38.7899 14.9088 39.8867 14.2487 40.9734C13.3549 39.8156 12.3292 38.7594 11.2527 37.7642Z" fill="#00539F"/>
<path d="M23.1249 40.9328C23.7952 39.8563 24.5061 38.8001 25.2271 37.7642C29.9801 37.7642 34.733 37.7642 39.486 37.7642C39.4758 38.8204 39.486 39.8766 39.486 40.9328C34.0323 40.9328 28.5786 40.9328 23.1249 40.9328Z" fill="#00539F"/>
<path d="M6.2865 41.4199C6.39821 41.5113 6.49977 41.6027 6.57086 41.7246C7.20052 42.7199 7.83019 43.7253 8.43954 44.7307C7.71847 44.7307 6.99741 44.7307 6.26619 44.7307C6.26619 43.6237 6.24587 42.5269 6.2865 41.4199Z" fill="#00539F"/>
<path d="M22.7694 41.481C28.3449 41.4606 33.9103 41.481 39.4859 41.481C39.4859 42.5676 39.4859 43.6543 39.4859 44.7511C33.2502 44.7511 27.0145 44.7511 20.7788 44.7511C21.4186 43.6441 22.0991 42.5676 22.7694 41.4911" fill="#00539F"/>
<path d="M6.26624 45.1063C7.05839 45.1063 7.8607 45.0962 8.65286 45.1063C9.29268 46.2133 9.92234 47.3203 10.5114 48.4476C9.09972 48.4476 7.6779 48.4476 6.26624 48.4476C6.26624 47.3305 6.26624 46.2133 6.26624 45.0962" fill="#00539F"/>
<path d="M20.5352 45.117C26.8521 45.0865 33.169 45.117 39.486 45.1068C39.486 46.224 39.486 47.3411 39.486 48.4583C32.5495 48.4583 25.6131 48.4583 18.6766 48.4583C19.2555 47.3208 19.9258 46.2341 20.5352 45.117Z" fill="#00539F"/>
<path d="M6.26624 48.8139C7.75915 48.824 9.2419 48.7936 10.7348 48.8342C11.2528 49.9716 11.8418 51.0685 12.3191 52.2262C10.3083 52.2364 8.28725 52.2262 6.27639 52.2262C6.27639 51.0888 6.27639 49.9513 6.27639 48.8037" fill="#00539F"/>
<path d="M16.6658 52.2255C17.2345 51.0778 17.854 49.9607 18.443 48.8233C25.4607 48.8029 32.4683 48.8131 39.486 48.8233C39.486 49.9607 39.486 51.088 39.486 52.2255C31.8792 52.2458 24.2725 52.2356 16.6658 52.2255Z" fill="#00539F"/>
<path d="M57.0194 15.4273C57.7559 15.2916 58.4343 15.2141 59.0933 15.2141C59.7911 15.2141 60.5276 15.2916 61.2641 15.4273L71.0329 31.5148V15.4273C71.8857 15.2916 72.6804 15.2141 73.4557 15.2141C74.1922 15.2141 74.89 15.2916 75.5684 15.4273V40.7021C74.8125 40.8377 74.1341 40.9153 73.5332 40.9153C72.8742 40.9153 72.1571 40.8377 71.3818 40.7021L61.5355 24.634V40.7021C60.7796 40.8377 60.0237 40.9153 59.2484 40.9153C58.4731 40.9153 57.7365 40.8377 57 40.7021V15.4273H57.0194Z" fill="#00539F"/>
<path d="M84.6199 15.4273C85.1044 15.3498 85.5696 15.311 86.0154 15.2723C86.4612 15.2335 86.9458 15.2141 87.4885 15.2141C87.9537 15.2141 88.4188 15.2335 88.8646 15.2723C89.3104 15.311 89.795 15.3498 90.3377 15.4273L98.2458 40.7021C97.2766 40.8377 96.3463 40.9153 95.4353 40.9153C94.5243 40.9153 93.6715 40.8377 92.838 40.7021L91.4425 35.6432H83.0693L81.635 40.7021C80.8015 40.8377 79.9875 40.9153 79.2122 40.9153C78.34 40.9153 77.4871 40.8377 76.6537 40.7021L84.6393 15.4273H84.6199ZM90.2408 31.3791L87.314 20.7575L84.2516 31.3791H90.2214H90.2408Z" fill="#00539F"/>
<path d="M99.3312 15.3101C100.417 15.2132 101.502 15.1357 102.607 15.0775C103.712 15.0194 104.816 15 105.941 15C107.065 15 108.305 15.1163 109.507 15.3489C110.709 15.5815 111.794 16.0273 112.783 16.6669C113.752 17.3065 114.546 18.1981 115.147 19.3611C115.748 20.5046 116.058 21.9971 116.058 23.819C116.058 25.641 115.748 27.1334 115.147 28.2576C114.527 29.4012 113.752 30.2928 112.783 30.9518C111.813 31.6108 110.747 32.0566 109.565 32.2892C108.383 32.5218 107.22 32.6381 106.076 32.6381C105.766 32.6381 105.495 32.6381 105.223 32.6381C104.952 32.6381 104.7 32.5993 104.468 32.5799V40.7012C104.022 40.7787 103.595 40.8174 103.169 40.8368C102.742 40.8562 102.335 40.8756 101.948 40.8756C101.58 40.8756 101.153 40.8756 100.707 40.8368C100.262 40.8174 99.7964 40.7593 99.3312 40.7012V15.3295V15.3101ZM104.468 28.3158C104.758 28.3545 105.01 28.3933 105.262 28.3933H106.154C106.735 28.3933 107.317 28.3158 107.879 28.1607C108.441 28.0056 108.945 27.7537 109.371 27.4048C109.798 27.0559 110.147 26.5907 110.418 26.0092C110.67 25.4278 110.806 24.73 110.806 23.8772C110.806 23.0243 110.67 22.2684 110.418 21.687C110.166 21.0861 109.817 20.6015 109.371 20.2527C108.945 19.8844 108.441 19.6324 107.879 19.4774C107.317 19.3223 106.735 19.2448 106.154 19.2448C105.902 19.2448 105.65 19.2448 105.437 19.2448C105.223 19.2448 104.894 19.2835 104.468 19.3417V28.2964V28.3158Z" fill="#00539F"/>
<path d="M118.074 15.4273C118.946 15.2916 119.799 15.2141 120.632 15.2141C121.466 15.2141 122.338 15.2916 123.23 15.4273V40.7021C122.338 40.8377 121.485 40.9153 120.671 40.9153C119.799 40.9153 118.946 40.8377 118.074 40.7021V15.4273Z" fill="#00539F"/>
<path d="M131.312 19.7871H125.032C124.897 19.0893 124.819 18.3528 124.819 17.5775C124.819 16.8409 124.897 16.1432 125.032 15.426H142.787C142.922 16.1238 143 16.8409 143 17.5775C143 18.3528 142.922 19.0893 142.787 19.7871H136.487V40.7008C136.061 40.7395 135.654 40.7783 135.228 40.8171C134.801 40.8558 134.394 40.8752 133.987 40.8752C133.58 40.8752 133.154 40.8752 132.708 40.8364C132.243 40.8171 131.797 40.7589 131.312 40.7008V19.7871Z" fill="#00539F"/>
</svg>
