<svg width="194" height="41" viewBox="0 0 194 41" fill="none" xmlns="http://www.w3.org/2000/svg">
<path d="M25.2993 3.73371L19.4917 0.3803C18.6127 -0.126767 17.5242 -0.126767 16.6453 0.3803L1.41979 9.16947C0.540872 9.67653 0 10.6163 0 11.6372V18.3372L25.2993 3.73371Z" fill="#00A7A8"/>
<path d="M1.42655 31.6833L3.61708 32.9476L36.1438 14.1659V11.6373C36.1438 10.6232 35.6029 9.68339 34.7172 9.16956L32.5267 7.90527L0 26.687V29.2156C0 30.2298 0.540872 31.1695 1.41979 31.6833" fill="#00A7A8"/>
<path d="M10.8445 37.1192L16.6521 40.4726C17.531 40.9796 18.6195 40.9796 19.4984 40.4726L36.1438 30.8653V22.5156L10.8445 37.1192Z" fill="#00A7A8"/>
<path d="M39.7541 3.73371L33.9465 0.3803C33.0676 -0.126767 31.9791 -0.126767 31.1002 0.3803L14.4548 9.98754V18.3372L39.7541 3.73371Z" fill="#002851"/>
<path d="M15.8812 31.6833L18.0717 32.9476L50.5984 14.1659V11.6373C50.5984 10.6232 50.0575 9.68339 49.1786 9.16956L46.9881 7.90527L14.4614 26.687V29.2156C14.4614 30.2298 15.0023 31.1695 15.8812 31.6833Z" fill="#002851"/>
<path d="M25.2991 37.1192L31.1067 40.4726C31.9856 40.9796 33.0741 40.9796 33.953 40.4726L49.1786 31.6834C50.0575 31.1763 50.5983 30.2366 50.5983 29.2157V22.5156L25.2991 37.1192Z" fill="#002851"/>
<path d="M179.481 7.57422V22.8403H182.767V14.9436V7.57422H179.481Z" fill="#4C5E84"/>
<path d="M186.912 14.6934L193.024 7.57422H188.778L182.767 14.9436L184.424 16.8569L189.312 22.8403H193.47L186.912 14.6934Z" fill="#4C5E84"/>
<path d="M60.9832 10.0959H65.6347V22.6441H66.2567L68.8393 21.1027V10.0959H73.4773V7.34424H60.9832V10.0959Z" fill="#002851"/>
<path d="M87.3169 12.1174C87.3169 9.27109 85.5726 7.34424 81.2051 7.34424H75.4854V22.6441H78.69V17.4788H81.32L84.4233 22.6441H87.993L84.3692 16.8501C86.1608 16.0658 87.3237 14.5378 87.3237 12.1107M81.2118 14.7339H78.69V10.0892H81.0158C83.0981 10.0892 83.9027 10.8734 83.9027 12.3135C83.9027 13.8415 82.8818 14.7339 81.2118 14.7339Z" fill="#002851"/>
<path d="M111.805 13.8409C109.493 13.0093 107.931 12.7118 107.931 11.434C107.931 10.3861 108.81 9.79788 110.223 9.79788C111.46 9.79788 112.887 10.2373 113.935 10.9675L115.294 8.57416C114.273 7.80342 112.441 7.07324 110.155 7.07324C106.876 7.07324 104.598 8.70938 104.598 11.549C104.598 14.0708 106.315 15.1593 108.796 15.9841C110.973 16.7075 112.319 17.0523 112.319 18.2152C112.319 19.2293 111.433 19.9189 109.574 19.9189C108.195 19.9189 106.646 19.5133 105.348 18.8304L104.354 21.4807C105.95 22.4475 108.019 22.8937 109.736 22.8937C113.259 22.8937 115.713 21.1427 115.713 18.0259C115.713 15.7475 114.286 14.7131 111.791 13.8341" fill="#002851"/>
<path d="M116.882 10.0959H121.534V22.6441H122.163L124.738 21.1027V10.0959H129.376V7.34424H116.882V10.0959Z" fill="#002851"/>
<path d="M139.585 18.3915L134.447 7.34424H131.385V22.6441H134.454V13.3412L138.571 22.1979H140.377L144.568 13.26V22.6441H147.638V7.34424H144.548L139.585 18.3915Z" fill="#4C5E84"/>
<path d="M154.771 7.34424L149.031 22.6441H152.391L156.359 10.9951L160.416 22.6441H163.891L157.995 7.34424H154.771Z" fill="#4C5E84"/>
<path d="M177.088 12.1174C177.088 9.27109 175.344 7.34424 170.976 7.34424H165.257V22.6441H168.461V17.4788H171.091L174.194 22.6441H177.764L174.14 16.8501C175.932 16.0658 177.095 14.5378 177.095 12.1107M170.983 14.7339H168.461V10.0892H170.787C172.869 10.0892 173.674 10.8734 173.674 12.3135C173.674 13.8415 172.653 14.7339 170.983 14.7339Z" fill="#4C5E84"/>
<path d="M98.9928 8.89248V17.0326C98.9928 17.6749 99.0807 18.3645 98.959 18.9933C98.8508 19.5409 98.3167 19.7775 97.8231 19.9127C97.1471 20.0953 96.4236 20.1426 95.7273 20.1223C95.1188 20.1021 94.5103 20.0074 93.9221 19.8519C93.4421 19.7167 93.0905 19.4327 93.0161 18.9189C92.9215 18.3037 92.9959 17.6546 92.9959 17.0326V7.34424H92.3739L89.7912 8.89248V12.327C89.7912 12.327 89.7912 17.1002 89.7912 17.107V18.4186C89.7777 18.7702 89.798 19.8789 90.5146 20.8931C90.5822 20.9877 90.6498 21.0891 90.731 21.1838C91.6978 22.2993 93.6787 22.989 95.8963 22.989C95.9301 22.989 95.9571 22.989 95.9842 22.989C96.0112 22.989 96.045 22.989 96.0721 22.989C98.2964 22.989 100.277 22.2926 101.237 21.1838C101.319 21.0891 101.386 20.9877 101.454 20.8931C102.17 19.8789 102.191 18.7702 102.177 18.4186C102.177 18.4186 102.177 17.107 102.177 17.1002V7.351H101.657L98.9793 8.89924L98.9928 8.89248Z" fill="#002851"/>
<path d="M65.0264 28.8305C65.0805 28.5263 65.1819 28.222 65.3306 27.9178C65.4726 27.6136 65.6484 27.3499 65.8647 27.12C66.0811 26.8969 66.3515 26.7144 66.6895 26.5724C67.0276 26.4304 67.413 26.3628 67.8389 26.3628C68.8598 26.3628 69.6441 26.8158 70.1985 27.7285L69.279 28.3775C69.0423 28.0327 68.8057 27.7961 68.5691 27.6744C68.3257 27.5527 68.062 27.4851 67.7781 27.4851C67.4941 27.4851 67.2507 27.5459 67.0411 27.6744C66.8248 27.8029 66.6557 27.9786 66.534 28.195C66.4124 28.4113 66.3177 28.6547 66.2568 28.9252C66.196 29.1956 66.1622 29.4796 66.1622 29.7838C66.1622 30.5207 66.2974 31.0954 66.5679 31.5078C66.8383 31.927 67.2372 32.1366 67.7713 32.1366C68.0214 32.1366 68.2716 32.0622 68.515 31.9067C68.7584 31.758 68.9747 31.5552 69.1573 31.3118V30.6019H67.7916V29.608H70.2999V33.1372H69.3331L69.2857 32.4949C68.7787 33.002 68.231 33.2589 67.6428 33.2589C67.2372 33.2589 66.8856 33.1981 66.5679 33.0696C66.2501 32.9411 65.9932 32.7654 65.7971 32.5558C65.601 32.3462 65.432 32.0893 65.2968 31.785C65.1616 31.4808 65.0669 31.1698 65.0196 30.8385C64.9655 30.5072 64.9385 30.1557 64.9385 29.777H64.9452C64.9452 29.4593 64.9723 29.1415 65.0331 28.8305" fill="#4C5E84"/>
<path d="M71.4559 30.0539C71.4762 29.939 71.51 29.8308 71.5506 29.7159C71.5912 29.6009 71.6385 29.4928 71.6926 29.3778C71.8007 29.1547 71.9427 28.9519 72.105 28.7761C72.2673 28.6071 72.4836 28.4583 72.7405 28.3502C72.9974 28.2352 73.2881 28.1812 73.5991 28.1812C73.9304 28.1812 74.2212 28.2352 74.4781 28.3434C74.735 28.4583 74.9446 28.6003 75.1068 28.7693C75.2691 28.9451 75.3975 29.1412 75.5057 29.3711C75.6139 29.6009 75.6883 29.8241 75.7356 30.0404C75.7829 30.2635 75.8032 30.4799 75.8032 30.6962C75.8032 30.8179 75.7964 30.9396 75.7829 31.0545C75.7694 31.1695 75.7491 31.2912 75.7288 31.4061C75.6815 31.6427 75.5936 31.8726 75.4854 32.089C75.3637 32.3121 75.2285 32.5081 75.0663 32.6771C74.904 32.8394 74.7012 32.9814 74.4443 33.0828C74.2009 33.1842 73.9237 33.2315 73.6194 33.2315C73.3152 33.2315 73.038 33.1775 72.7811 33.076C72.5309 32.9746 72.3213 32.8394 72.1523 32.6636C71.9901 32.5014 71.8548 32.3053 71.7331 32.0754C71.6182 31.8591 71.5371 31.6292 71.4897 31.3926C71.4424 31.1559 71.4154 30.9193 71.4154 30.6894H71.4019C71.4019 30.4799 71.4221 30.2635 71.4695 30.0404M72.8216 31.7982C73.0245 32.1092 73.2814 32.258 73.5924 32.258C73.9169 32.258 74.1806 32.1092 74.3767 31.805C74.5727 31.5008 74.6674 31.1357 74.6674 30.7097C74.6674 30.2567 74.5795 29.8917 74.3969 29.6077C74.2144 29.3237 73.944 29.1818 73.5991 29.1818C73.3693 29.1818 73.1665 29.2561 72.9974 29.4116C72.8284 29.5671 72.6999 29.7564 72.6256 29.9796C72.5512 30.2094 72.5106 30.4528 72.5106 30.7097C72.5106 31.1289 72.6121 31.494 72.8149 31.7982" fill="#4C5E84"/>
<path d="M78.1291 30.2027C78.2779 30.6556 78.3657 30.9261 78.386 30.9937L78.5551 31.6292H78.5753C78.6227 31.4399 78.6632 31.2979 78.697 31.1965C78.7308 31.0951 78.7444 31.0275 78.7579 31.0072L79.6436 28.269H80.8808L79.0554 33.1234H78.0886L76.2563 28.269H77.4936C77.7708 29.1074 77.9804 29.7497 78.1291 30.2027Z" fill="#4C5E84"/>
<path d="M81.5499 29.4658C81.7121 29.0737 81.969 28.7627 82.3071 28.5328C82.6451 28.3029 83.0643 28.188 83.5443 28.188C83.835 28.188 84.0987 28.2353 84.3354 28.3367C84.572 28.4381 84.7613 28.5666 84.91 28.7221C85.0588 28.8776 85.1805 29.0669 85.2886 29.2833C85.3901 29.5064 85.4577 29.7227 85.505 29.9526C85.5253 30.0675 85.5388 30.1825 85.5523 30.2974C85.5658 30.4123 85.5658 30.534 85.5658 30.6557V30.7233C85.5658 30.7233 85.5658 30.7504 85.5658 30.7707C85.5658 30.7909 85.5658 30.818 85.5658 30.845C85.5658 30.9059 85.5591 30.9667 85.5523 31.0343H82.422C82.4355 31.4197 82.5302 31.7239 82.7127 31.9538C82.8885 32.1837 83.1454 32.2986 83.4835 32.2986C83.7336 32.2986 83.9635 32.2445 84.1663 32.1431C84.3624 32.0417 84.5517 31.8524 84.7275 31.5752L85.5456 32.1161C85.2886 32.542 85.0047 32.8395 84.6937 33.0085C84.3759 33.1775 83.9567 33.2654 83.4429 33.2654C83.1522 33.2654 82.8818 33.2181 82.6451 33.1167C82.4085 33.022 82.2057 32.8868 82.0434 32.7313C81.8879 32.5758 81.7527 32.3865 81.6378 32.1702C81.5228 31.9538 81.4417 31.7375 81.4011 31.5144C81.3538 31.298 81.3268 31.0749 81.3268 30.8383H81.3132C81.3132 30.3177 81.3944 29.8647 81.5566 29.4793M84.1663 29.459C83.9973 29.263 83.7742 29.1683 83.4835 29.1683C83.1928 29.1683 82.9832 29.2697 82.8006 29.4726C82.6181 29.6821 82.5032 29.9323 82.4558 30.2365H84.4571C84.43 29.912 84.3286 29.6551 84.1663 29.459Z" fill="#4C5E84"/>
<path d="M87.6278 28.2626L87.709 28.9049C87.7901 28.7967 87.8645 28.7088 87.9253 28.6412C87.9794 28.5804 88.0538 28.506 88.1484 28.4249C88.2363 28.3505 88.3377 28.2897 88.4391 28.2491C88.5473 28.2085 88.6622 28.1815 88.7975 28.168C88.811 28.168 88.8313 28.168 88.8651 28.168C88.9462 28.168 89.0476 28.1815 89.1626 28.2153C89.3045 28.2559 89.4262 28.3099 89.5276 28.3776L89.2234 29.3646C88.98 29.2768 88.8177 29.2362 88.7366 29.2362C88.5203 29.2362 88.3445 29.3038 88.2025 29.439C88.0538 29.5742 87.9253 29.7771 87.8036 30.0407V33.1237H86.6948V28.2626H87.6211H87.6278Z" fill="#4C5E84"/>
<path d="M91.5224 28.2556L91.5562 28.9384C91.7522 28.6951 91.9618 28.5125 92.1714 28.3908C92.381 28.2691 92.6109 28.2015 92.8813 28.188C92.9084 28.188 92.9354 28.188 92.9624 28.188H93.0368C93.2194 28.188 93.3884 28.215 93.5371 28.2624C93.7264 28.33 93.8819 28.4246 94.0036 28.5463C94.1253 28.6748 94.2267 28.8235 94.3079 29.0061C94.3822 29.1818 94.4363 29.3711 94.4701 29.5672C94.4836 29.6686 94.4972 29.77 94.5039 29.8715C94.5107 29.9796 94.5175 30.0878 94.5175 30.196V33.1167H93.3951V30.1892C93.3951 29.5469 93.145 29.2292 92.6379 29.2292C92.4216 29.2292 92.2255 29.3103 92.0565 29.4726C91.8807 29.6348 91.732 29.8444 91.6035 30.0878V33.1167H90.4812V28.2556H91.5224Z" fill="#4C5E84"/>
<path d="M96.8432 28.2693L96.9379 28.9656C97.1542 28.7222 97.357 28.5397 97.5396 28.418C97.7221 28.2963 97.9317 28.2287 98.1819 28.2017C98.2021 28.2017 98.2292 28.2017 98.2562 28.2017H98.3306L98.5943 28.2219C98.7227 28.2422 98.8647 28.2828 99.0134 28.3504C99.1554 28.4112 99.2839 28.5127 99.4056 28.6411C99.5273 28.7696 99.6219 28.9251 99.6963 29.1144C99.7436 29.0535 99.7909 28.9994 99.8315 28.9521C99.8721 28.9048 99.9126 28.8575 99.9532 28.8169C100.034 28.729 100.129 28.6411 100.237 28.5532C100.352 28.4586 100.474 28.3842 100.609 28.3234C100.744 28.2693 100.879 28.2287 101.028 28.2152C101.062 28.2152 101.096 28.2152 101.13 28.2084C101.163 28.2084 101.197 28.2084 101.231 28.2084C101.474 28.2084 101.684 28.249 101.86 28.3166C102.096 28.4045 102.272 28.5465 102.401 28.729C102.529 28.9183 102.624 29.1347 102.691 29.3713C102.752 29.6147 102.786 29.8851 102.786 30.1826V33.1371H101.65V30.1691C101.65 29.8716 101.589 29.635 101.468 29.4592C101.353 29.3037 101.184 29.2226 100.954 29.2226C100.927 29.2226 100.9 29.2226 100.886 29.2226C100.67 29.2361 100.481 29.3172 100.312 29.4795C100.149 29.635 100.014 29.8243 99.9194 30.0541V33.1236H98.7903V30.1556C98.7903 29.8648 98.7295 29.6282 98.6078 29.4524C98.4929 29.2969 98.3306 29.2158 98.121 29.209H98.0872C98.0872 29.209 98.0602 29.209 98.0466 29.209C97.6207 29.2428 97.2827 29.5403 97.0325 30.088V33.1168H95.8967L95.8696 28.2625H96.8364L96.8432 28.2693Z" fill="#4C5E84"/>
<path d="M104.111 29.4658C104.273 29.0737 104.53 28.7627 104.868 28.5328C105.206 28.3029 105.626 28.188 106.106 28.188C106.396 28.188 106.66 28.2353 106.897 28.3367C107.133 28.4381 107.323 28.5666 107.471 28.7221C107.62 28.8776 107.742 29.0669 107.85 29.2833C107.951 29.5064 108.026 29.7227 108.066 29.9526C108.087 30.0675 108.1 30.1825 108.114 30.2974C108.127 30.4123 108.127 30.534 108.127 30.6557V30.7233C108.127 30.7233 108.127 30.7504 108.127 30.7707C108.127 30.7909 108.127 30.818 108.127 30.845C108.127 30.9059 108.12 30.9667 108.114 31.0343H104.983C104.997 31.4197 105.091 31.7239 105.274 31.9538C105.45 32.1837 105.707 32.2986 106.045 32.2986C106.295 32.2986 106.525 32.2445 106.728 32.1431C106.924 32.0417 107.113 31.8524 107.289 31.5752L108.107 32.1161C107.85 32.542 107.566 32.8395 107.255 33.0085C106.937 33.1775 106.525 33.2654 106.004 33.2654C105.713 33.2654 105.443 33.2181 105.206 33.1167C104.97 33.022 104.767 32.8868 104.605 32.7313C104.449 32.5758 104.314 32.3865 104.199 32.1702C104.084 31.9538 104.003 31.7375 103.962 31.5144C103.915 31.298 103.888 31.0749 103.888 30.8383H103.875C103.875 30.3177 103.956 29.8647 104.118 29.4793M106.728 29.459C106.559 29.263 106.335 29.1683 106.045 29.1683C105.754 29.1683 105.544 29.2697 105.362 29.4726C105.179 29.6821 105.064 29.9323 105.017 30.2365H107.018C106.991 29.912 106.89 29.6551 106.728 29.459Z" fill="#4C5E84"/>
<path d="M110.324 28.2556L110.358 28.9384C110.554 28.6951 110.764 28.5125 110.973 28.3908C111.183 28.2691 111.413 28.2015 111.683 28.188C111.71 28.188 111.737 28.188 111.764 28.188H111.839C112.021 28.188 112.19 28.215 112.339 28.2624C112.528 28.33 112.684 28.4246 112.805 28.5463C112.927 28.6748 113.029 28.8235 113.11 29.0061C113.184 29.1818 113.238 29.3711 113.272 29.5672C113.285 29.6686 113.299 29.77 113.306 29.8715C113.313 29.9796 113.319 30.0878 113.319 30.196V33.1167H112.197V30.1892C112.197 29.5469 111.947 29.2292 111.44 29.2292C111.223 29.2292 111.027 29.3103 110.858 29.4726C110.683 29.6348 110.534 29.8444 110.412 30.0878V33.1167H109.29V28.2556H110.331H110.324Z" fill="#4C5E84"/>
<path d="M114.861 28.2624V27.201L115.956 26.7886V28.2557H116.984V29.1617H115.956V31.8322C115.956 31.9742 115.99 32.0756 116.051 32.15C116.112 32.2243 116.22 32.2581 116.369 32.2581C116.382 32.2581 116.429 32.2581 116.497 32.2446C116.571 32.2311 116.673 32.2176 116.808 32.1973L116.943 33.0154C116.639 33.1168 116.396 33.1709 116.213 33.1709C115.997 33.1709 115.801 33.1438 115.632 33.0965C115.463 33.0424 115.327 32.9816 115.233 32.9072C115.131 32.8261 115.057 32.7314 114.996 32.6165C114.935 32.5015 114.895 32.3866 114.874 32.2717C114.861 32.2108 114.854 32.15 114.847 32.0891C114.847 32.0215 114.847 31.9539 114.847 31.8795V29.1684H114.097V28.2557H114.868L114.861 28.2624Z" fill="#4C5E84"/>
<path d="M124.813 26.4365L124.745 27.5183H121.628V29.195H124.387L124.319 30.2429H121.628V32.0143H124.846L124.786 33.1231H120.452V26.4365H124.813Z" fill="#4C5E84"/>
<path d="M127.085 28.2556L127.118 28.9384C127.315 28.6951 127.524 28.5125 127.734 28.3908C127.943 28.2691 128.173 28.2015 128.444 28.188C128.471 28.188 128.498 28.188 128.525 28.188H128.599C128.782 28.188 128.951 28.215 129.099 28.2624C129.289 28.33 129.444 28.4246 129.566 28.5463C129.688 28.6748 129.789 28.8235 129.87 29.0061C129.944 29.1818 129.999 29.3711 130.032 29.5672C130.046 29.6686 130.059 29.77 130.066 29.8715C130.073 29.9796 130.08 30.0878 130.08 30.196V33.1167H128.957V30.1892C128.957 29.5469 128.707 29.2292 128.2 29.2292C127.984 29.2292 127.788 29.3103 127.619 29.4726C127.443 29.6348 127.294 29.8444 127.166 30.0878V33.1167H126.043V28.2556H127.085Z" fill="#4C5E84"/>
<path d="M131.222 30.1148C131.263 29.8781 131.33 29.6415 131.438 29.4049C131.54 29.1682 131.668 28.9654 131.824 28.7829C131.973 28.6071 132.175 28.4583 132.419 28.3502C132.669 28.2352 132.946 28.1811 133.257 28.1811C133.717 28.1811 134.15 28.3975 134.562 28.8234V26.5247L135.671 26.1123V33.1234H134.684L134.636 32.4675C134.406 32.7312 134.17 32.9273 133.94 33.0557C133.703 33.191 133.44 33.2586 133.149 33.2586C132.858 33.2586 132.615 33.2112 132.392 33.1098C132.162 33.0084 131.979 32.88 131.831 32.7245C131.682 32.5622 131.56 32.3797 131.459 32.1633C131.357 31.9537 131.283 31.7374 131.242 31.5075C131.195 31.2844 131.175 31.0613 131.175 30.8382H131.168C131.168 30.6015 131.188 30.3581 131.229 30.1148M132.419 31.4399C132.486 31.6495 132.601 31.832 132.764 31.9808C132.926 32.1295 133.122 32.2106 133.352 32.2106C133.615 32.2106 133.845 32.1295 134.062 31.974C134.271 31.8185 134.433 31.6157 134.548 31.3588V29.9795C134.433 29.7564 134.278 29.5806 134.082 29.4454C133.879 29.3102 133.656 29.2426 133.413 29.2426C133.217 29.2426 133.048 29.2832 132.906 29.3643C132.764 29.4522 132.649 29.5671 132.574 29.7091C132.493 29.8578 132.439 30.0133 132.398 30.1891C132.365 30.3649 132.344 30.5542 132.344 30.7503H132.324C132.324 30.9869 132.358 31.2168 132.425 31.4331" fill="#4C5E84"/>
<path d="M136.901 30.0539C136.921 29.939 136.955 29.8308 136.996 29.7159C137.036 29.6009 137.084 29.4928 137.138 29.3778C137.246 29.1547 137.388 28.9519 137.55 28.7761C137.712 28.6071 137.922 28.4583 138.186 28.3502C138.449 28.2352 138.733 28.1812 139.044 28.1812C139.376 28.1812 139.666 28.2352 139.917 28.3434C140.173 28.4583 140.383 28.6003 140.545 28.7693C140.708 28.9451 140.836 29.1412 140.944 29.3711C141.052 29.6009 141.127 29.8241 141.174 30.0404C141.221 30.2635 141.242 30.4799 141.242 30.6962C141.242 30.8179 141.235 30.9396 141.221 31.0545C141.208 31.1695 141.188 31.2912 141.167 31.4061C141.113 31.6427 141.032 31.8726 140.924 32.089C140.802 32.3121 140.667 32.5081 140.505 32.6771C140.342 32.8394 140.14 32.9814 139.883 33.0828C139.639 33.1842 139.362 33.2315 139.058 33.2315C138.754 33.2315 138.476 33.1775 138.22 33.076C137.969 32.9746 137.76 32.8394 137.591 32.6636C137.429 32.5014 137.293 32.3053 137.172 32.0754C137.057 31.8591 136.976 31.6292 136.928 31.3926C136.881 31.1559 136.854 30.9193 136.854 30.6894H136.84C136.84 30.4799 136.861 30.2635 136.908 30.0404M138.274 31.7982C138.476 32.1092 138.733 32.258 139.044 32.258C139.355 32.258 139.633 32.1092 139.829 31.805C140.025 31.5008 140.119 31.1357 140.119 30.7097C140.119 30.2567 140.031 29.8917 139.849 29.6077C139.666 29.3237 139.396 29.1818 139.051 29.1818C138.821 29.1818 138.618 29.2561 138.449 29.4116C138.28 29.5671 138.152 29.7564 138.078 29.9796C138.003 30.2094 137.963 30.4528 137.963 30.7097C137.963 31.1289 138.064 31.494 138.267 31.7982" fill="#4C5E84"/>
<path d="M143.311 28.2626L143.392 28.9049C143.473 28.7967 143.548 28.7088 143.608 28.6412C143.663 28.5804 143.737 28.506 143.832 28.4249C143.919 28.3505 144.021 28.2897 144.122 28.2491C144.23 28.2085 144.345 28.1815 144.481 28.168C144.494 28.168 144.514 28.168 144.548 28.168C144.629 28.168 144.731 28.1815 144.846 28.2153C144.988 28.2559 145.103 28.3099 145.211 28.3776L144.907 29.3646C144.663 29.2768 144.501 29.2362 144.42 29.2362C144.21 29.2362 144.028 29.3038 143.886 29.439C143.737 29.5742 143.608 29.7771 143.487 30.0407V33.1237H142.378V28.2626H143.304H143.311Z" fill="#4C5E84"/>
<path d="M147.597 32.2715C147.786 32.2715 147.962 32.2174 148.124 32.116C148.287 32.0146 148.368 31.8726 148.368 31.6901C148.368 31.5954 148.32 31.5143 148.232 31.4399C148.145 31.3723 148.03 31.3114 147.888 31.2641C147.752 31.2168 147.59 31.1695 147.414 31.1154C147.239 31.0681 147.07 31.014 146.894 30.9396C146.718 30.872 146.556 30.7909 146.421 30.703C146.279 30.6083 146.164 30.4799 146.076 30.3244C145.988 30.1621 145.941 29.9795 145.941 29.77C145.941 29.2967 146.103 28.9113 146.421 28.6206C146.745 28.3299 147.144 28.1812 147.624 28.1812C148.009 28.1812 148.354 28.269 148.658 28.4516C148.969 28.6274 149.213 28.8775 149.409 29.202L148.584 29.7632C148.334 29.3778 148.003 29.1818 147.583 29.1818C147.428 29.1818 147.299 29.2291 147.191 29.317C147.083 29.4049 147.029 29.5266 147.029 29.6821C147.029 29.7767 147.076 29.8579 147.164 29.9255C147.252 29.9931 147.367 30.0539 147.509 30.1012C147.583 30.1215 147.658 30.1486 147.739 30.1689C147.82 30.1891 147.901 30.2162 147.989 30.2365C148.077 30.2635 148.165 30.2906 148.246 30.3176C148.334 30.3446 148.422 30.3784 148.503 30.4122C148.591 30.4461 148.672 30.4866 148.753 30.5272C148.834 30.5677 148.909 30.6083 148.976 30.6556C149.118 30.7503 149.233 30.8787 149.321 31.041C149.409 31.21 149.456 31.3993 149.456 31.6157C149.456 32.0957 149.287 32.4878 148.942 32.7853C148.598 33.0896 148.185 33.2383 147.698 33.2383C147.212 33.2383 146.799 33.1572 146.495 33.0017C146.191 32.8394 145.92 32.5555 145.684 32.1363L146.502 31.5751C146.786 32.0349 147.151 32.2647 147.597 32.2647" fill="#4C5E84"/>
<path d="M150.585 29.4658C150.748 29.0737 151.005 28.7627 151.343 28.5328C151.687 28.3029 152.1 28.188 152.587 28.188C152.877 28.188 153.141 28.2353 153.378 28.3367C153.614 28.4381 153.804 28.5666 153.959 28.7221C154.108 28.8776 154.23 29.0669 154.338 29.2833C154.439 29.5064 154.514 29.7227 154.554 29.9526C154.574 30.0675 154.588 30.1825 154.601 30.2974C154.615 30.4123 154.615 30.534 154.615 30.6557V30.7233C154.615 30.7233 154.615 30.7504 154.615 30.7707C154.615 30.7909 154.615 30.818 154.615 30.845C154.615 30.9059 154.601 30.9667 154.601 31.0343H151.471C151.485 31.4197 151.579 31.7239 151.762 31.9538C151.938 32.1837 152.195 32.2986 152.533 32.2986C152.783 32.2986 153.013 32.2445 153.215 32.1431C153.411 32.0417 153.601 31.8524 153.777 31.5752L154.595 32.1161C154.338 32.542 154.054 32.8395 153.743 33.0085C153.425 33.1775 153.006 33.2654 152.492 33.2654C152.201 33.2654 151.931 33.2181 151.694 33.1167C151.458 33.022 151.255 32.8868 151.092 32.7313C150.937 32.5758 150.802 32.3865 150.687 32.1702C150.572 31.9538 150.491 31.7375 150.45 31.5144C150.403 31.298 150.376 31.0749 150.376 30.8383H150.362C150.362 30.3177 150.443 29.8647 150.606 29.4793M153.202 29.459C153.033 29.263 152.81 29.1683 152.519 29.1683C152.228 29.1683 152.019 29.2697 151.836 29.4726C151.654 29.6821 151.539 29.9323 151.491 30.2365H153.493C153.466 29.912 153.364 29.6551 153.202 29.459Z" fill="#4C5E84"/>
<path d="M155.616 30.1148C155.656 29.8781 155.724 29.6415 155.832 29.4049C155.933 29.1682 156.062 28.9654 156.217 28.7829C156.366 28.6071 156.569 28.4583 156.812 28.3502C157.062 28.2352 157.34 28.1811 157.651 28.1811C158.11 28.1811 158.543 28.3975 158.955 28.8234V26.5247L160.064 26.1123V33.1234H159.077L159.03 32.4675C158.8 32.7312 158.563 32.9273 158.333 33.0557C158.097 33.191 157.833 33.2586 157.542 33.2586C157.252 33.2586 157.008 33.2112 156.785 33.1098C156.555 33.0084 156.373 32.88 156.224 32.7245C156.075 32.5622 155.954 32.3797 155.852 32.1633C155.751 31.9537 155.676 31.7374 155.636 31.5075C155.589 31.2844 155.568 31.0613 155.568 30.8382H155.562C155.562 30.6015 155.582 30.3581 155.622 30.1148M156.812 31.4399C156.88 31.6495 156.995 31.832 157.157 31.9808C157.319 32.1295 157.515 32.2106 157.745 32.2106C158.009 32.2106 158.239 32.1295 158.455 31.974C158.665 31.8185 158.827 31.6157 158.942 31.3588V29.9795C158.827 29.7564 158.672 29.5806 158.475 29.4454C158.273 29.3102 158.05 29.2426 157.806 29.2426C157.61 29.2426 157.441 29.2832 157.299 29.3643C157.157 29.4522 157.042 29.5671 156.968 29.7091C156.887 29.8578 156.833 30.0133 156.792 30.1891C156.758 30.3649 156.738 30.5542 156.738 30.7503H156.718C156.718 30.9869 156.751 31.2168 156.819 31.4331" fill="#4C5E84"/>
<path d="M163.843 28.7558C163.911 28.438 164.019 28.127 164.161 27.8363C164.303 27.5456 164.486 27.2887 164.695 27.0656C164.905 26.8424 165.162 26.6667 165.473 26.5314C165.777 26.3962 166.115 26.3286 166.487 26.3286C166.859 26.3286 167.183 26.3895 167.481 26.5179C167.785 26.6464 168.042 26.8222 168.252 27.0385C168.461 27.2549 168.644 27.5118 168.786 27.8025C168.934 28.1 169.043 28.411 169.117 28.7355C169.191 29.0668 169.225 29.4048 169.225 29.7496C169.225 30.2026 169.164 30.6556 169.036 31.1221C168.914 31.5886 168.711 31.9942 168.448 32.3323L169.09 33.3126L168.353 33.8941L167.738 32.9475C167.366 33.1436 166.954 33.2383 166.501 33.2383C166.21 33.2383 165.933 33.1977 165.676 33.1233C165.426 33.0489 165.202 32.9475 165.02 32.8191C164.837 32.6906 164.668 32.5351 164.52 32.3526C164.378 32.17 164.256 31.9807 164.161 31.7711C164.114 31.6697 164.073 31.5615 164.033 31.4534C163.999 31.3452 163.958 31.2303 163.931 31.1153C163.871 30.8855 163.823 30.6556 163.796 30.4392C163.769 30.2229 163.756 29.9998 163.756 29.7699V29.7361C163.756 29.4116 163.796 29.0871 163.864 28.7558M164.946 30.0471C164.952 30.1553 164.966 30.2567 164.979 30.3581C165.006 30.5677 165.06 30.7773 165.142 30.9869C165.216 31.2032 165.311 31.3858 165.426 31.548C165.534 31.7103 165.682 31.8387 165.858 31.9402C166.034 32.0416 166.23 32.0889 166.46 32.0889C166.69 32.0889 166.886 32.0416 167.075 31.9402L166.359 30.8381L167.089 30.2567C167.109 30.2905 167.15 30.3581 167.21 30.446C167.237 30.4933 167.271 30.5407 167.312 30.6015C167.352 30.6623 167.393 30.7232 167.44 30.7976C167.494 30.8719 167.535 30.9395 167.582 31.0072C167.623 31.0748 167.663 31.1356 167.704 31.1965C167.88 30.784 167.968 30.2973 167.968 29.7293C167.968 29.6279 167.968 29.5333 167.954 29.4319C167.947 29.3305 167.934 29.229 167.92 29.1276C167.887 28.918 167.832 28.7152 167.758 28.5124C167.677 28.3028 167.582 28.1203 167.474 27.9648C167.359 27.8025 167.217 27.6673 167.048 27.5659C166.879 27.4644 166.683 27.4171 166.473 27.4171C166.284 27.4171 166.115 27.4509 165.966 27.5253C165.811 27.5997 165.682 27.7011 165.574 27.8228C165.473 27.9445 165.378 28.0864 165.297 28.2419C165.216 28.3974 165.155 28.5665 165.108 28.7423C165.081 28.8301 165.06 28.918 165.047 28.9992C165.033 29.0803 165.013 29.1682 165.006 29.2493C164.993 29.3305 164.986 29.4116 164.979 29.4927C164.979 29.5671 164.973 29.6482 164.973 29.7226L164.939 29.7091C164.939 29.8172 164.939 29.9187 164.952 30.0268" fill="#4C5E84"/>
<path d="M171.551 28.269V31.2506C171.551 31.8929 171.808 32.2106 172.308 32.2106C172.525 32.2106 172.714 32.1295 172.89 31.974C173.066 31.8118 173.208 31.6089 173.329 31.3655V28.2758H174.452V33.1301H173.458L173.377 32.5081C173.174 32.7583 172.971 32.9408 172.761 33.0558C172.552 33.1707 172.315 33.2383 172.051 33.2586C172.024 33.2586 171.997 33.2586 171.97 33.2586H171.896C171.72 33.2586 171.551 33.2315 171.402 33.1842C171.213 33.1166 171.058 33.022 170.936 32.9003C170.814 32.7718 170.713 32.6231 170.632 32.4473C170.557 32.2783 170.496 32.0889 170.469 31.8861C170.456 31.7915 170.442 31.6833 170.436 31.5819C170.429 31.4737 170.422 31.3655 170.422 31.2506V28.269H171.538H171.551Z" fill="#4C5E84"/>
<path d="M175.587 31.2102C175.628 31.075 175.682 30.9533 175.75 30.8519C175.817 30.7504 175.905 30.6558 176.013 30.5747C176.122 30.4935 176.23 30.4259 176.331 30.3718C176.385 30.3448 176.439 30.3177 176.5 30.2975C176.561 30.2772 176.635 30.2569 176.71 30.2366C176.784 30.2163 176.859 30.196 176.926 30.1825C176.994 30.169 177.055 30.1555 177.115 30.1487C177.176 30.142 177.237 30.1284 177.312 30.1217C177.386 30.1149 177.46 30.1082 177.548 30.1014C177.717 30.0879 177.852 30.0811 177.961 30.0744C178.008 30.0744 178.069 30.0744 178.136 30.0744H178.359C178.359 29.7363 178.305 29.5064 178.211 29.378C178.109 29.2495 177.9 29.1819 177.595 29.1819C177.386 29.1819 177.19 29.2157 177.001 29.2766C176.818 29.3442 176.608 29.4524 176.385 29.6079L175.838 28.8439C176.291 28.4112 176.865 28.1948 177.562 28.1948C177.812 28.1948 178.028 28.2219 178.217 28.2692C178.407 28.3233 178.576 28.3841 178.704 28.4585C178.846 28.5329 178.961 28.6343 179.049 28.756C179.15 28.8844 179.218 29.0129 179.272 29.1278C179.32 29.2495 179.367 29.3983 179.394 29.5808C179.407 29.6687 179.421 29.7566 179.428 29.8377C179.434 29.9189 179.441 30 179.448 30.0811C179.455 30.2366 179.462 30.4192 179.462 30.6287V33.1303H178.535C178.522 32.9545 178.508 32.8125 178.501 32.7111C178.495 32.6097 178.488 32.5353 178.488 32.5015C178.292 32.7111 178.069 32.8869 177.812 33.0356C177.568 33.1844 177.312 33.252 177.048 33.252C176.581 33.252 176.216 33.1032 175.946 32.8058C175.682 32.5083 175.547 32.1297 175.547 31.6564V31.6767C175.54 31.5144 175.56 31.3589 175.601 31.2169M176.791 32.1499C176.899 32.2581 177.061 32.3122 177.271 32.3122C177.481 32.3122 177.677 32.2446 177.873 32.1094C178.069 31.9742 178.231 31.8051 178.339 31.6158V30.8316H178.123C178.123 30.8316 178.062 30.8316 178.021 30.8316C177.981 30.8316 177.934 30.8316 177.886 30.8383C177.839 30.8383 177.792 30.8383 177.744 30.8451C177.704 30.8451 177.663 30.8519 177.629 30.8586C177.568 30.8654 177.487 30.8789 177.386 30.8992C177.284 30.9195 177.21 30.9397 177.143 30.9668C177.082 30.9938 177.014 31.0276 176.94 31.075C176.865 31.1223 176.811 31.1696 176.771 31.2237C176.723 31.2846 176.69 31.3454 176.669 31.413C176.642 31.4874 176.629 31.5753 176.629 31.6699H176.622C176.622 31.8863 176.676 32.0418 176.784 32.1567" fill="#4C5E84"/>
<path d="M181.739 26.1055V31.8725C181.739 32.0213 181.767 32.1227 181.821 32.1768C181.875 32.2308 181.956 32.2579 182.071 32.2579C182.084 32.2579 182.105 32.2579 182.118 32.2579C182.138 32.2579 182.152 32.2579 182.172 32.2511C182.192 32.2511 182.213 32.2511 182.233 32.2444C182.26 32.2444 182.287 32.2376 182.314 32.2308L182.503 32.2038L182.639 33.0286C182.348 33.1368 182.111 33.1909 181.929 33.1909C181.719 33.1909 181.53 33.1638 181.368 33.1165C181.212 33.0692 181.09 33.0016 180.989 32.9205C180.901 32.8461 180.827 32.7447 180.773 32.6162C180.719 32.4945 180.685 32.3796 180.665 32.2646C180.644 32.1497 180.637 32.0213 180.637 31.8793L180.617 26.5246L181.733 26.1122L181.739 26.1055Z" fill="#4C5E84"/>
<path d="M184.769 28.2687V33.1231H183.66V29.1747H183.159V28.2687H184.762H184.769ZM183.666 26.2269C183.822 26.0782 183.998 25.9971 184.201 25.9971C184.403 25.9971 184.579 26.0714 184.728 26.2269C184.877 26.3757 184.958 26.5582 184.958 26.7678C184.958 26.9774 184.883 27.1532 184.728 27.3087C184.579 27.4574 184.403 27.5386 184.201 27.5386C183.998 27.5386 183.815 27.4642 183.666 27.3087C183.518 27.1599 183.443 26.9774 183.443 26.7678C183.443 26.565 183.518 26.3824 183.673 26.2269" fill="#4C5E84"/>
<path d="M186.405 28.2624V27.201L187.5 26.7886V28.2557H188.528V29.1617H187.5V31.8322C187.5 31.9742 187.534 32.0756 187.595 32.15C187.655 32.2243 187.764 32.2581 187.912 32.2581C187.926 32.2581 187.973 32.2581 188.041 32.2446C188.115 32.2311 188.217 32.2176 188.352 32.1973L188.487 33.0154C188.183 33.1168 187.939 33.1709 187.757 33.1709C187.54 33.1709 187.344 33.1438 187.175 33.0965C187.006 33.0424 186.878 32.9816 186.783 32.9072C186.689 32.8261 186.607 32.7314 186.54 32.6165C186.479 32.5015 186.438 32.3866 186.418 32.2717C186.405 32.2108 186.398 32.15 186.391 32.0891C186.391 32.0215 186.391 31.9539 186.391 31.8795V29.1684H185.641V28.2557H186.411L186.405 28.2624Z" fill="#4C5E84"/>
<path d="M191.043 30.5546L191.347 31.5755H191.387C191.543 31.0549 191.644 30.7237 191.692 30.5749L192.408 28.283H193.639L191.665 33.9283C191.523 34.3543 191.333 34.6517 191.117 34.8275C190.901 34.9965 190.576 35.0844 190.137 35.0844C189.961 35.0844 189.724 35.0371 189.413 34.9492L189.555 34.05C189.555 34.05 189.596 34.0568 189.623 34.0635C189.65 34.0635 189.684 34.0771 189.717 34.0838C189.785 34.1041 189.853 34.1176 189.913 34.1244C189.968 34.1312 190.022 34.1379 190.076 34.1379C190.157 34.1379 190.218 34.1312 190.272 34.1109C190.326 34.0906 190.373 34.0568 190.414 34.0027C190.495 33.8945 190.644 33.5497 190.86 32.9683L189.068 28.2627L190.292 28.283C190.752 29.6757 190.995 30.4329 191.036 30.5479" fill="#4C5E84"/>
</svg>
